<svg version="1.1" id="Layer_1" xmlns="http://www.w3.org/2000/svg" xmlns:xlink="http://www.w3.org/1999/xlink" x="0px" y="0px"
	 width="100%" viewBox="0 0 512 512" enable-background="new 0 0 512 512" xml:space="preserve">
<path fill="#3764B9" opacity="1.000000" stroke="none" 
	d="
M257.000000,513.000000 
	C206.979111,513.000000 156.958206,513.000000 106.639771,512.613037 
	C105.839577,511.844238 105.379692,511.210358 104.828140,511.116760 
	C82.986824,507.411133 63.517487,498.157654 46.786190,484.012146 
	C23.874149,464.641205 8.799736,440.163513 2.933111,410.400421 
	C2.757197,409.507935 1.664998,408.796082 0.999999,408.000000 
	C1.000000,395.312439 1.000000,382.624878 1.213122,369.122894 
	C1.928314,364.030304 2.425045,359.751465 2.933305,355.474030 
	C6.839376,322.601440 17.288296,291.901459 34.103806,263.444092 
	C49.666840,237.106339 69.415764,214.429169 93.696922,195.607559 
	C121.953377,173.704468 153.474335,159.043640 188.177673,150.884628 
	C212.535553,145.157913 237.266235,144.476761 262.095276,145.414032 
	C258.394897,157.318100 256.798798,169.096649 256.947662,181.201019 
	C257.154541,198.020187 256.999725,214.843796 256.999725,231.665512 
	C256.999725,234.621277 256.999695,237.577042 256.999695,240.999619 
	C254.912674,240.999619 253.293839,240.999588 251.674988,240.999619 
	C237.851212,240.999908 224.027237,240.957382 210.203705,241.014328 
	C199.601852,241.058014 193.056564,247.575333 193.015533,258.147919 
	C192.956696,273.303864 192.965652,288.460358 193.012085,303.616425 
	C193.045197,314.432220 199.616364,320.954895 210.495178,320.989258 
	C224.318832,321.032898 238.142731,320.992950 251.966492,321.010284 
	C253.563629,321.012268 255.160599,321.149841 257.000000,321.235870 
	C257.000000,385.460175 257.000000,449.230103 257.000000,513.000000 
z"/>
<path fill="#507DD2" opacity="1.000000" stroke="none" 
	d="
M262.107300,145.021515 
	C237.266235,144.476761 212.535553,145.157913 188.177673,150.884628 
	C153.474335,159.043640 121.953377,173.704468 93.696922,195.607559 
	C69.415764,214.429169 49.666840,237.106339 34.103806,263.444092 
	C17.288296,291.901459 6.839376,322.601440 2.933305,355.474030 
	C2.425045,359.751465 1.928314,364.030304 1.213122,368.654236 
	C1.000000,281.645782 1.000000,194.291550 1.349290,106.753204 
	C2.106929,106.068344 2.784405,105.616257 2.885000,105.059868 
	C7.737448,78.220741 20.233480,55.635494 39.793007,36.616203 
	C57.934589,18.975693 79.278481,7.915431 103.961678,2.948305 
	C104.740280,2.791623 105.324928,1.671161 106.000000,1.000000 
	C202.354233,1.000000 298.708466,1.000000 395.799744,1.215870 
	C398.024567,1.287827 399.512268,1.143913 401.000000,1.000000 
	C401.000000,1.000000 401.500000,1.000000 401.710510,1.362200 
	C403.480316,2.599325 404.949646,3.732910 406.612152,4.311285 
	C447.150940,18.414875 466.834076,58.922966 452.014709,99.027145 
	C445.672516,116.190392 433.970520,129.117157 417.105957,136.571594 
	C417.023956,123.456154 417.057770,110.806931 416.984863,98.158333 
	C416.924316,87.647552 410.322357,81.052612 399.792114,81.016319 
	C383.814545,80.961250 367.833130,80.800041 351.859619,81.063660 
	C325.697174,81.495430 303.332123,91.134361 284.731171,109.546883 
	C274.505096,119.669373 267.554382,131.861206 262.107300,145.021515 
z"/>
<path fill="#FFFFFF" opacity="1.000000" stroke="none" 
	d="
M262.095276,145.414032 
	C267.554382,131.861206 274.505096,119.669373 284.731171,109.546883 
	C303.332123,91.134361 325.697174,81.495430 351.859619,81.063660 
	C367.833130,80.800041 383.814545,80.961250 399.792114,81.016319 
	C410.322357,81.052612 416.924316,87.647552 416.984863,98.158333 
	C417.057770,110.806931 417.023956,123.456154 417.036316,137.024170 
	C417.024231,139.108673 417.003662,140.274078 417.001465,141.439514 
	C416.975494,155.357483 411.265717,160.997711 397.190521,160.999741 
	C383.036804,161.001770 368.883057,160.975204 354.729431,161.008591 
	C343.455536,161.035172 337.031067,167.406250 337.010498,178.615387 
	C336.975037,197.930984 336.994354,217.246674 337.012909,236.562317 
	C337.014282,237.985947 337.194397,239.409409 337.302765,240.999878 
	C356.896271,240.999878 376.035461,240.988205 395.174622,241.004623 
	C405.266357,241.013275 410.128174,244.535049 413.277710,254.493713 
	C413.211884,256.602386 413.398071,258.307770 413.084015,259.915405 
	C409.927185,276.075531 406.875977,292.260254 403.394043,308.351257 
	C401.626465,316.519836 395.576019,320.906189 387.070465,320.975311 
	C375.740753,321.067413 364.409790,320.999451 353.079346,321.000031 
	C347.812927,321.000275 342.546509,321.000061 337.000061,321.000061 
	C337.000061,323.413605 337.000061,325.221313 337.000061,327.029022 
	C337.000061,373.683746 336.988800,420.338440 337.007599,466.993164 
	C337.012573,479.319641 337.110413,491.646057 337.097168,504.419708 
	C337.019196,507.577942 337.009613,510.288971 337.000000,513.000000 
	C310.645782,513.000000 284.291534,513.000000 257.468658,513.000000 
	C257.000000,449.230103 257.000000,385.460175 257.000000,321.235870 
	C255.160599,321.149841 253.563629,321.012268 251.966492,321.010284 
	C238.142731,320.992950 224.318832,321.032898 210.495178,320.989258 
	C199.616364,320.954895 193.045197,314.432220 193.012085,303.616425 
	C192.965652,288.460358 192.956696,273.303864 193.015533,258.147919 
	C193.056564,247.575333 199.601852,241.058014 210.203705,241.014328 
	C224.027237,240.957382 237.851212,240.999908 251.674988,240.999619 
	C253.293839,240.999588 254.912674,240.999619 256.999695,240.999619 
	C256.999695,237.577042 256.999725,234.621277 256.999725,231.665512 
	C256.999725,214.843796 257.154541,198.020187 256.947662,181.201019 
	C256.798798,169.096649 258.394897,157.318100 262.095276,145.414032 
z"/>
<path fill="#1E4BA0" opacity="1.000000" stroke="none" 
	d="
M337.165588,503.972504 
	C337.110413,491.646057 337.012573,479.319641 337.007599,466.993164 
	C336.988800,420.338440 337.000061,373.683746 337.000061,327.029022 
	C337.000061,325.221313 337.000061,323.413605 337.000061,321.000061 
	C342.546509,321.000061 347.812927,321.000275 353.079346,321.000031 
	C364.409790,320.999451 375.740753,321.067413 387.070465,320.975311 
	C395.576019,320.906189 401.626465,316.519836 403.394043,308.351257 
	C406.875977,292.260254 409.927185,276.075531 413.084015,259.915405 
	C413.398071,258.307770 413.211884,256.602386 413.633575,254.406769 
	C414.480591,253.707947 414.944519,253.517960 415.424316,253.385330 
	C461.567261,240.629379 492.360168,211.615860 507.360931,166.133026 
	C509.838989,158.619370 511.149780,150.720734 513.000000,143.000000 
	C513.000000,231.020889 513.000000,319.041779 512.601257,407.455475 
	C511.869659,408.191406 511.305237,408.494263 511.237427,408.883545 
	C508.793427,422.917419 504.122711,436.155304 496.894714,448.432709 
	C477.223358,481.846344 448.529266,502.858917 410.551697,511.093506 
	C409.607697,511.298157 408.846466,512.345642 408.000000,513.000000 
	C396.979095,513.000000 385.958221,513.000000 374.134644,512.786316 
	C361.276520,509.705933 349.221069,506.839203 337.165588,503.972504 
z"/>
<path fill="#3764B9" opacity="1.000000" stroke="none" 
	d="
M513.000000,142.531342 
	C511.149780,150.720734 509.838989,158.619370 507.360931,166.133026 
	C492.360168,211.615860 461.567261,240.629379 415.424316,253.385330 
	C414.944519,253.517960 414.480591,253.707947 413.653412,253.958130 
	C410.128174,244.535049 405.266357,241.013275 395.174622,241.004623 
	C376.035461,240.988205 356.896271,240.999878 337.302765,240.999878 
	C337.194397,239.409409 337.014282,237.985947 337.012909,236.562317 
	C336.994354,217.246674 336.975037,197.930984 337.010498,178.615387 
	C337.031067,167.406250 343.455536,161.035172 354.729431,161.008591 
	C368.883057,160.975204 383.036804,161.001770 397.190521,160.999741 
	C411.265717,160.997711 416.975494,155.357483 417.001465,141.439514 
	C417.003662,140.274078 417.024231,139.108673 417.105927,137.490662 
	C433.970520,129.117157 445.672516,116.190392 452.014709,99.027145 
	C466.834076,58.922966 447.150940,18.414875 406.612152,4.311285 
	C404.949646,3.732910 403.480316,2.599325 401.960510,1.362200 
	C403.714355,1.000000 405.428711,1.000000 407.426392,1.392098 
	C408.213043,2.163327 408.674683,2.793212 409.225861,2.884924 
	C423.091461,5.192111 436.067902,10.039632 448.159729,17.076918 
	C481.971649,36.755066 503.032318,65.732567 511.082031,104.100533 
	C511.236206,104.835472 512.339539,105.371277 513.000000,106.000000 
	C513.000000,118.020897 513.000000,130.041794 513.000000,142.531342 
z"/>
<path fill="#000000" opacity="1.000000" stroke="none" 
	d="
M513.000000,105.531342 
	C512.339539,105.371277 511.236206,104.835472 511.082031,104.100533 
	C503.032318,65.732567 481.971649,36.755066 448.159729,17.076918 
	C436.067902,10.039632 423.091461,5.192111 409.225861,2.884924 
	C408.674683,2.793212 408.213043,2.163327 407.854858,1.392098 
	C442.926941,1.000000 477.853882,1.000000 513.000000,1.000000 
	C513.000000,35.687252 513.000000,70.374969 513.000000,105.531342 
z"/>
<path fill="#000000" opacity="1.000000" stroke="none" 
	d="
M0.999999,408.468658 
	C1.664998,408.796082 2.757197,409.507935 2.933111,410.400421 
	C8.799736,440.163513 23.874149,464.641205 46.786190,484.012146 
	C63.517487,498.157654 82.986824,507.411133 104.828140,511.116760 
	C105.379692,511.210358 105.839577,511.844238 106.171112,512.613037 
	C71.073059,513.000000 36.146114,513.000000 1.000000,513.000000 
	C1.000000,478.312744 1.000000,443.625031 0.999999,408.468658 
z"/>
<path fill="#000000" opacity="1.000000" stroke="none" 
	d="
M408.468689,513.000000 
	C408.846466,512.345642 409.607697,511.298157 410.551697,511.093506 
	C448.529266,502.858917 477.223358,481.846344 496.894714,448.432709 
	C504.122711,436.155304 508.793427,422.917419 511.237427,408.883545 
	C511.305237,408.494263 511.869659,408.191406 512.601257,407.924133 
	C513.000000,442.926941 513.000000,477.853882 513.000000,513.000000 
	C478.312744,513.000000 443.625031,513.000000 408.468689,513.000000 
z"/>
<path fill="#000000" opacity="1.000000" stroke="none" 
	d="
M105.531342,1.000000 
	C105.324928,1.671161 104.740280,2.791623 103.961678,2.948305 
	C79.278481,7.915431 57.934589,18.975693 39.793007,36.616203 
	C20.233480,55.635494 7.737448,78.220741 2.885000,105.059868 
	C2.784405,105.616257 2.106929,106.068344 1.349290,106.284546 
	C1.000000,71.073059 1.000000,36.146111 1.000000,1.000000 
	C35.687252,1.000000 70.374969,1.000000 105.531342,1.000000 
z"/>
<path fill="#3663B8" opacity="1.000000" stroke="none" 
	d="
M337.097198,504.419708 
	C349.221069,506.839203 361.276520,509.705933 373.665985,512.786316 
	C361.979095,513.000000 349.958221,513.000000 337.468689,513.000000 
	C337.009613,510.288971 337.019196,507.577942 337.097198,504.419708 
z"/>
<path fill="#3764B9" opacity="1.000000" stroke="none" 
	d="
M400.583344,1.000000 
	C399.512268,1.143913 398.024567,1.287827 396.268433,1.215870 
	C397.388885,1.000000 398.777802,1.000000 400.583344,1.000000 
z"/>
</svg>