<?xml version="1.0" standalone="no"?>
<!DOCTYPE svg PUBLIC "-//W3C//DTD SVG 20010904//EN"
 "http://www.w3.org/TR/2001/REC-SVG-20010904/DTD/svg10.dtd">
<svg version="1.0" xmlns="http://www.w3.org/2000/svg"
 width="700.000000pt" height="700.000000pt" viewBox="0 0 700.000000 700.000000"
 preserveAspectRatio="xMidYMid meet">
<metadata>
Created by potrace 1.14, written by Peter Selinger 2001-2017
</metadata>
<g transform="translate(0.000000,700.000000) scale(0.100000,-0.100000)"
fill="#000000" stroke="none">
<path d="M1110 6983 c-52 -8 -142 -30 -198 -49 -432 -144 -747 -480 -865 -924
-29 -108 -30 -126 -31 -305 -1 -123 4 -211 12 -250 58 -266 167 -476 341 -658
141 -147 300 -254 481 -322 l100 -38 0 -1531 0 -1531 24 -50 c34 -73 69 -110
138 -144 l61 -31 346 0 345 0 -215 -217 c-119 -120 -228 -238 -242 -263 -44
-77 -60 -153 -54 -253 4 -75 10 -99 40 -160 117 -236 387 -323 621 -200 37 20
194 169 586 560 l535 532 630 3 630 3 43 23 c62 33 118 96 142 158 19 52 20
76 20 476 l0 420 23 -7 c93 -29 149 -37 227 -32 101 5 203 38 281 90 30 20
444 427 930 914 695 697 881 888 899 927 30 64 37 165 16 237 -54 189 -273
289 -455 208 -36 -16 -171 -145 -621 -594 -317 -316 -581 -575 -587 -575 -15
0 -43 28 -43 43 0 6 260 272 579 592 650 651 616 610 615 760 0 67 -5 89 -29
138 -33 67 -97 130 -163 160 -70 32 -208 31 -277 -2 -39 -19 -172 -145 -620
-592 -402 -401 -577 -569 -592 -569 -13 0 -24 8 -28 21 -6 18 78 107 563 593
361 361 577 586 590 611 84 170 19 369 -150 456 -32 17 -66 24 -130 27 l-88 4
0 72 c0 309 -142 650 -369 890 -86 90 -240 200 -364 261 -374 182 -797 178
-1163 -9 -49 -25 -101 -53 -115 -62 -24 -16 -27 -15 -65 9 -319 201 -733 250
-1099 130 -74 -24 -234 -99 -296 -139 -24 -16 -27 -15 -65 9 -255 161 -586
228 -894 180z m473 -237 c115 -29 254 -93 352 -162 94 -65 126 -65 216 -1 93
66 237 133 354 164 90 24 117 27 270 26 151 0 181 -3 268 -26 116 -31 255 -95
352 -163 95 -66 126 -66 216 -2 92 66 237 133 354 165 90 24 117 27 270 27
152 0 180 -3 267 -27 468 -125 793 -526 815 -1002 3 -71 1 -151 -6 -195 l-12
-75 -417 -418 c-229 -230 -428 -423 -442 -429 -14 -6 -86 -12 -160 -15 -253
-10 -451 46 -664 188 -102 69 -120 69 -222 1 -204 -133 -393 -192 -619 -192
-227 0 -423 61 -619 191 -102 69 -120 69 -222 1 -204 -133 -393 -192 -619
-192 -501 0 -933 338 -1058 829 -19 73 -22 112 -21 261 1 146 4 188 22 253 86
314 280 560 552 701 101 53 209 90 317 111 118 22 330 14 456 -19z m4100
-1346 c30 -24 47 -74 40 -116 -4 -22 -147 -172 -578 -604 -315 -316 -580 -590
-589 -607 -80 -160 44 -363 222 -363 119 0 85 -29 717 601 406 404 589 580
609 585 79 19 153 -43 143 -120 -5 -36 -48 -82 -575 -610 -397 -397 -577 -585
-593 -616 -29 -58 -31 -158 -5 -210 33 -63 63 -95 117 -125 71 -38 161 -40
229 -6 31 16 220 197 615 591 382 382 579 571 598 575 83 21 154 -56 133 -142
-5 -19 -282 -303 -869 -891 -952 -953 -913 -918 -1050 -929 -90 -8 -161 15
-239 77 -95 75 -133 93 -213 98 -140 9 -42 97 -1330 -1189 -1222 -1221 -1178
-1179 -1270 -1179 -117 0 -224 105 -225 219 0 109 -72 31 1171 1276 819 821
1153 1163 1169 1194 12 25 25 70 27 101 8 80 -17 146 -82 226 -73 88 -98 157
-93 254 6 140 -39 89 930 1058 l873 872 46 0 c32 0 55 -7 72 -20z m-3490 -876
c283 -145 660 -175 972 -77 85 27 208 82 290 131 l51 30 39 -25 c177 -109 446
-193 619 -193 l50 0 -276 -277 c-156 -158 -291 -303 -312 -335 -58 -91 -86
-190 -86 -301 0 -148 34 -243 134 -371 25 -33 46 -69 46 -80 0 -14 -161 -182
-487 -508 l-488 -488 -787 0 -788 0 0 1180 0 1180 133 0 c255 0 479 60 681
183 l60 36 40 -25 c23 -14 72 -41 109 -60z m2187 -2324 l0 -170 -182 0 -183 0
170 170 c93 94 175 170 182 170 10 0 13 -40 13 -170z"/>
</g>
</svg>
